<?xml version="1.0" encoding="UTF-8"?>
<svg width="200" height="200" viewBox="0 0 200 200" xmlns="http://www.w3.org/2000/svg">
  <!-- QR Code matrix for a simple URL -->
  <!-- This is a manually created QR code pattern for demonstration -->
  <rect width="200" height="200" fill="white"/>
  
  <!-- Position markers (corners) -->
  <!-- Top-left -->
  <rect x="10" y="10" width="70" height="70" fill="black"/>
  <rect x="20" y="20" width="50" height="50" fill="white"/>
  <rect x="30" y="30" width="30" height="30" fill="black"/>
  
  <!-- Top-right -->
  <rect x="120" y="10" width="70" height="70" fill="black"/>
  <rect x="130" y="20" width="50" height="50" fill="white"/>
  <rect x="140" y="30" width="30" height="30" fill="black"/>
  
  <!-- Bottom-left -->
  <rect x="10" y="120" width="70" height="70" fill="black"/>
  <rect x="20" y="130" width="50" height="50" fill="white"/>
  <rect x="30" y="140" width="30" height="30" fill="black"/>
  
  <!-- Timing patterns -->
  <rect x="90" y="10" width="10" height="10" fill="black"/>
  <rect x="90" y="30" width="10" height="10" fill="black"/>
  <rect x="90" y="50" width="10" height="10" fill="black"/>
  <rect x="90" y="70" width="10" height="10" fill="black"/>
  
  <rect x="10" y="90" width="10" height="10" fill="black"/>
  <rect x="30" y="90" width="10" height="10" fill="black"/>
  <rect x="50" y="90" width="10" height="10" fill="black"/>
  <rect x="70" y="90" width="10" height="10" fill="black"/>
  
  <!-- Data pattern (simplified) -->
  <rect x="90" y="90" width="10" height="10" fill="black"/>
  <rect x="100" y="90" width="10" height="10" fill="white"/>
  <rect x="110" y="90" width="10" height="10" fill="black"/>
  <rect x="90" y="100" width="10" height="10" fill="white"/>
  <rect x="100" y="100" width="10" height="10" fill="black"/>
  <rect x="110" y="100" width="10" height="10" fill="white"/>
  <rect x="90" y="110" width="10" height="10" fill="black"/>
  <rect x="100" y="110" width="10" height="10" fill="white"/>
  <rect x="110" y="110" width="10" height="10" fill="black"/>
  
  <!-- More data modules -->
  <rect x="120" y="90" width="10" height="10" fill="black"/>
  <rect x="130" y="90" width="10" height="10" fill="white"/>
  <rect x="140" y="90" width="10" height="10" fill="black"/>
  <rect x="150" y="90" width="10" height="10" fill="white"/>
  <rect x="160" y="90" width="10" height="10" fill="black"/>
  <rect x="170" y="90" width="10" height="10" fill="white"/>
  <rect x="180" y="90" width="10" height="10" fill="black"/>
  
  <rect x="90" y="120" width="10" height="10" fill="white"/>
  <rect x="100" y="120" width="10" height="10" fill="black"/>
  <rect x="110" y="120" width="10" height="10" fill="white"/>
  <rect x="120" y="120" width="10" height="10" fill="black"/>
  <rect x="130" y="120" width="10" height="10" fill="white"/>
  <rect x="140" y="120" width="10" height="10" fill="black"/>
  <rect x="150" y="120" width="10" height="10" fill="white"/>
  <rect x="160" y="120" width="10" height="10" fill="black"/>
  <rect x="170" y="120" width="10" height="10" fill="white"/>
  <rect x="180" y="120" width="10" height="10" fill="black"/>
  
  <rect x="90" y="130" width="10" height="10" fill="black"/>
  <rect x="100" y="130" width="10" height="10" fill="white"/>
  <rect x="110" y="130" width="10" height="10" fill="black"/>
  <rect x="120" y="130" width="10" height="10" fill="white"/>
  <rect x="130" y="130" width="10" height="10" fill="black"/>
  <rect x="140" y="130" width="10" height="10" fill="white"/>
  <rect x="150" y="130" width="10" height="10" fill="black"/>
  <rect x="160" y="130" width="10" height="10" fill="white"/>
  <rect x="170" y="130" width="10" height="10" fill="black"/>
  <rect x="180" y="130" width="10" height="10" fill="white"/>
  
  <rect x="90" y="140" width="10" height="10" fill="white"/>
  <rect x="100" y="140" width="10" height="10" fill="black"/>
  <rect x="110" y="140" width="10" height="10" fill="white"/>
  <rect x="120" y="140" width="10" height="10" fill="black"/>
  <rect x="130" y="140" width="10" height="10" fill="white"/>
  <rect x="140" y="140" width="10" height="10" fill="black"/>
  <rect x="150" y="140" width="10" height="10" fill="white"/>
  <rect x="160" y="140" width="10" height="10" fill="black"/>
  <rect x="170" y="140" width="10" height="10" fill="white"/>
  <rect x="180" y="140" width="10" height="10" fill="black"/>
  
  <rect x="90" y="150" width="10" height="10" fill="black"/>
  <rect x="100" y="150" width="10" height="10" fill="white"/>
  <rect x="110" y="150" width="10" height="10" fill="black"/>
  <rect x="120" y="150" width="10" height="10" fill="white"/>
  <rect x="130" y="150" width="10" height="10" fill="black"/>
  <rect x="140" y="150" width="10" height="10" fill="white"/>
  <rect x="150" y="150" width="10" height="10" fill="black"/>
  <rect x="160" y="150" width="10" height="10" fill="white"/>
  <rect x="170" y="150" width="10" height="10" fill="black"/>
  <rect x="180" y="150" width="10" height="10" fill="white"/>
  
  <rect x="90" y="160" width="10" height="10" fill="white"/>
  <rect x="100" y="160" width="10" height="10" fill="black"/>
  <rect x="110" y="160" width="10" height="10" fill="white"/>
  <rect x="120" y="160" width="10" height="10" fill="black"/>
  <rect x="130" y="160" width="10" height="10" fill="white"/>
  <rect x="140" y="160" width="10" height="10" fill="black"/>
  <rect x="150" y="160" width="10" height="10" fill="white"/>
  <rect x="160" y="160" width="10" height="10" fill="black"/>
  <rect x="170" y="160" width="10" height="10" fill="white"/>
  <rect x="180" y="160" width="10" height="10" fill="black"/>
  
  <rect x="90" y="170" width="10" height="10" fill="black"/>
  <rect x="100" y="170" width="10" height="10" fill="white"/>
  <rect x="110" y="170" width="10" height="10" fill="black"/>
  <rect x="120" y="170" width="10" height="10" fill="white"/>
  <rect x="130" y="170" width="10" height="10" fill="black"/>
  <rect x="140" y="170" width="10" height="10" fill="white"/>
  <rect x="150" y="170" width="10" height="10" fill="black"/>
  <rect x="160" y="170" width="10" height="10" fill="white"/>
  <rect x="170" y="170" width="10" height="10" fill="black"/>
  <rect x="180" y="170" width="10" height="10" fill="white"/>
  
  <rect x="90" y="180" width="10" height="10" fill="white"/>
  <rect x="100" y="180" width="10" height="10" fill="black"/>
  <rect x="110" y="180" width="10" height="10" fill="white"/>
  <rect x="120" y="180" width="10" height="10" fill="black"/>
  <rect x="130" y="180" width="10" height="10" fill="white"/>
  <rect x="140" y="180" width="10" height="10" fill="black"/>
  <rect x="150" y="180" width="10" height="10" fill="white"/>
  <rect x="160" y="180" width="10" height="10" fill="black"/>
  <rect x="170" y="180" width="10" height="10" fill="white"/>
  <rect x="180" y="180" width="10" height="10" fill="black"/>
</svg>